# xmcd
#
# Track frame offsets: 
#        150
#        13390
#        26079
#        37466
#        52907
#        68961
#        79212
#        98888
#        111111
#        123668
#        134908
#        147625
#        158224
#
# Disc length: 2248 seconds
#
# Revision: 0
# Processed by: cddbd v1.5.1PL0 Copyright (c) Steve Scherf et al.
# Submitted via: ExactAudioCopy v0.95a5
#
DISCID=cc08c60d
DTITLE=Lonesome Whistle Band - Too Late For Heartaches
DYEAR=2003
DGENRE=Bluegrass
TTITLE0=Why Baby Why
TTITLE1=Memory Of Your Smile
TTITLE2=Kentucky Mandolin
TTITLE3=Nero's Fiddle
TTITLE4=Teardrops
TTITLE5=Mark It Down
TTITLE6=Old , Old House
TTITLE7=Too Late For Heartaches
TTITLE8=King Of Kings
TTITLE9=Pretty Girl
TTITLE10=Tomorrow
TTITLE11=Old Leather Britches
TTITLE12=Maybe Someday
EXTD=
EXTT0=
EXTT1=
EXTT2=
EXTT3=
EXTT4=
EXTT5=
EXTT6=
EXTT7=
EXTT8=
EXTT9=
EXTT10=
EXTT11=
EXTT12=
PLAYORDER=
